<svg width="201" height="76" viewBox="0 0 201 76" fill="none" xmlns="http://www.w3.org/2000/svg">
<path d="M131.773 17.5658C128.323 11.9798 123.447 7.41363 117.647 4.33703C111.847 1.26043 105.332 -0.215554 98.772 0.0608896C93.8187 0.364926 88.9873 1.72171 84.5999 4.04073C80.2125 6.35975 76.3701 9.5877 73.329 13.5092C73.8693 14.3921 74.4554 15.2293 74.9425 16.1502L81.6324 28.7233L82.6522 26.7901C84.2095 23.5738 86.5757 20.8172 89.5189 18.7905C92.4622 16.7639 95.8815 15.5367 99.4417 15.2293C102.352 15.1201 105.253 15.599 107.974 16.6372C110.694 17.6754 113.177 19.2516 115.275 21.2717C117.372 23.2917 119.04 25.7139 120.18 28.3935C121.319 31.0731 121.906 33.955 121.906 36.8669C121.906 39.7787 121.319 42.6606 120.18 45.3402C119.04 48.0198 117.372 50.4421 115.275 52.4621C113.177 54.4821 110.694 56.0583 107.974 57.0966C105.253 58.1348 102.352 58.6136 99.4417 58.5045C95.8832 58.198 92.4653 56.9719 89.5233 54.9465C86.5814 52.9212 84.2162 50.166 82.6598 46.9512L77.3018 36.8745L68.2221 19.674C65.4205 14.1087 61.2164 9.36994 56.0246 5.92519C50.8328 2.48043 44.8326 0.448709 38.616 0.0304449C33.6515 -0.171409 28.6975 0.632097 24.0513 2.39271C19.4052 4.15332 15.1628 6.83473 11.5788 10.2759C7.99489 13.7171 5.14334 17.8471 3.19543 22.4179C1.24751 26.9886 0.243408 31.9059 0.243408 36.8745C0.243408 41.843 1.24751 46.7603 3.19543 51.3311C5.14334 55.9019 7.99489 60.0319 11.5788 63.473C15.1628 66.9142 19.4052 69.5956 24.0513 71.3562C28.6975 73.1169 33.6515 73.9204 38.616 73.7185C43.5692 73.4145 48.4006 72.0577 52.788 69.7387C57.1754 67.4196 61.0178 64.1917 64.059 60.2702C63.5186 59.3873 62.9326 58.5501 62.4455 57.6292L55.7556 45.0257L54.7357 46.9588C53.1785 50.1752 50.8123 52.9318 47.869 54.9584C44.9258 56.9851 41.5065 58.2122 37.9462 58.5197C34.0649 58.6825 30.2109 57.8018 26.7855 55.9694C23.3601 54.1369 20.4886 51.4196 18.4701 48.1005C16.4074 44.7249 15.316 40.8456 15.316 36.8897C15.316 32.9338 16.4074 29.0545 18.4701 25.6789C20.4117 22.4889 23.1409 19.8515 26.3956 18.0203C29.6504 16.189 33.3212 15.2253 37.0557 15.2217H37.9767C41.5352 15.5282 44.9531 16.7542 47.895 18.7796C50.837 20.8049 53.2021 23.5601 54.7585 26.7749L60.0861 36.8745L69.1658 54.075C71.9674 59.6402 76.1715 64.379 81.3633 67.8238C86.5552 71.2685 92.5553 73.3002 98.772 73.7185H100.363C106.915 73.7119 113.348 71.9595 118.999 68.6417C124.65 65.324 129.315 60.5606 132.514 54.8416C135.713 49.1227 137.33 42.6547 137.2 36.1031C137.07 29.5516 135.196 23.153 131.773 17.5658Z" fill="#9DDCF8"/>
<path d="M194.809 19.8169C191.359 14.2308 186.483 9.66468 180.683 6.58808C174.883 3.51148 168.368 2.0355 161.808 2.31194C156.855 2.61598 152.023 3.97276 147.636 6.29178C143.249 8.61081 139.406 11.8388 136.365 15.7603C136.905 16.6431 137.491 17.4803 137.979 18.4012L144.669 30.9743L145.688 29.0412C147.246 25.8248 149.612 23.0682 152.555 21.0416C155.498 19.0149 158.918 17.7878 162.478 17.4803C165.388 17.3712 168.29 17.85 171.01 18.8882C173.73 19.9264 176.214 21.5027 178.311 23.5227C180.408 25.5427 182.076 27.965 183.216 30.6446C184.355 33.3242 184.942 36.2061 184.942 39.1179C184.942 42.0297 184.355 44.9117 183.216 47.5913C182.076 50.2709 180.408 52.6931 178.311 54.7131C176.214 56.7331 173.73 58.3094 171.01 59.3476C168.29 60.3858 165.388 60.8647 162.478 60.7555C158.919 60.449 155.501 59.223 152.559 57.1976C149.617 55.1722 147.252 52.4171 145.696 49.2023L140.338 39.1255L131.258 21.9251C128.457 16.3598 124.253 11.621 119.061 8.17624C113.869 4.73149 107.869 2.69976 101.652 2.2815C96.6877 2.07964 91.7336 2.88315 87.0875 4.64376C82.4413 6.40437 78.1989 9.08578 74.615 12.527C71.031 15.9681 68.1795 20.0981 66.2316 24.6689C64.2836 29.2397 63.2795 34.157 63.2795 39.1255C63.2795 44.0941 64.2836 49.0114 66.2316 53.5821C68.1795 58.1529 71.031 62.2829 74.615 65.7241C78.1989 69.1653 82.4413 71.8467 87.0875 73.6073C91.7336 75.3679 96.6877 76.1714 101.652 75.9696C106.605 75.6655 111.437 74.3087 115.824 71.9897C120.212 69.6707 124.054 66.4428 127.095 62.5212C126.555 61.6384 125.969 60.8012 125.482 59.8803L118.792 47.2767L117.772 49.2099C116.215 52.4262 113.848 55.1828 110.905 57.2095C107.962 59.2361 104.543 60.4633 100.982 60.7707C97.101 60.9336 93.247 60.0529 89.8216 58.2204C86.3963 56.3879 83.5248 53.6706 81.5062 50.3515C79.4435 46.9759 78.3521 43.0967 78.3521 39.1408C78.3521 35.1848 79.4435 31.3056 81.5062 27.93C83.4479 24.7399 86.1771 22.1026 89.4318 20.2713C92.6865 18.44 96.3574 17.4763 100.092 17.4727H101.013C104.571 17.7792 107.989 19.0053 110.931 21.0306C113.873 23.056 116.238 25.8111 117.795 29.026L123.122 39.1255L132.202 56.326C135.004 61.8913 139.208 66.6301 144.399 70.0748C149.591 73.5196 155.591 75.5513 161.808 75.9696H163.399C169.952 75.9629 176.384 74.2106 182.035 70.8928C187.686 67.575 192.351 62.8116 195.55 57.0927C198.749 51.3737 200.366 44.9057 200.236 38.3542C200.106 31.8026 198.232 25.4041 194.809 19.8169Z" fill="#9DDCF8"/>
</svg>
