<svg width="222" height="81" viewBox="0 0 222 81" fill="none" xmlns="http://www.w3.org/2000/svg">
<path d="M144.073 19.241C140.294 13.1223 134.953 8.12066 128.6 4.75065C122.247 1.38064 115.11 -0.236111 107.925 0.0666966C102.499 0.399728 97.2073 1.88591 92.4015 4.42609C87.5957 6.96628 83.3868 10.5021 80.0556 14.7976C80.6475 15.7646 81.2894 16.6817 81.823 17.6904L89.1509 31.4626L90.268 29.3451C91.9738 25.822 94.5657 22.8025 97.7896 20.5826C101.014 18.3626 104.759 17.0184 108.659 16.6817C111.846 16.5621 115.025 17.0866 118.005 18.2238C120.984 19.3611 123.704 21.0877 126.002 23.3003C128.299 25.513 130.126 28.1662 131.374 31.1014C132.622 34.0365 133.266 37.1933 133.266 40.3828C133.266 43.5723 132.622 46.7291 131.374 49.6642C130.126 52.5994 128.299 55.2527 126.002 57.4653C123.704 59.678 120.984 61.4045 118.005 62.5418C115.025 63.679 111.846 64.2035 108.659 64.084C104.761 63.7482 101.017 62.4053 97.7944 60.1867C94.5719 57.9682 91.9812 54.9503 90.2764 51.4289L84.4074 40.3911L74.4617 21.5503C71.3929 15.4542 66.7879 10.2635 61.101 6.49027C55.414 2.71699 48.8416 0.491501 42.0321 0.0333484C36.5942 -0.187756 31.1677 0.692379 26.0785 2.6209C20.9892 4.54942 16.3422 7.48654 12.4165 11.2559C8.49073 15.0253 5.36724 19.5491 3.23355 24.5558C1.09987 29.5625 0 34.9488 0 40.3911C0 45.8335 1.09987 51.2198 3.23355 56.2265C5.36724 61.2332 8.49073 65.757 12.4165 69.5264C16.3422 73.2958 20.9892 76.2329 26.0785 78.1614C31.1677 80.0899 36.5942 80.9701 42.0321 80.7489C47.4577 80.4159 52.7499 78.9297 57.5557 76.3895C62.3615 73.8494 66.5704 70.3136 69.9016 66.0181C69.3097 65.051 68.6677 64.134 68.1342 63.1252L60.8063 49.3197L59.6891 51.4372C57.9834 54.9603 55.3915 57.9798 52.1676 60.1997C48.9437 62.4197 45.1983 63.7639 41.2985 64.1006C37.047 64.279 32.8254 63.3143 29.0734 61.3071C25.3213 59.2998 22.176 56.3234 19.9649 52.6877C17.7055 48.9902 16.5101 44.741 16.5101 40.4078C16.5101 36.0746 17.7055 31.8254 19.9649 28.1279C22.0917 24.6336 25.0812 21.7447 28.6463 19.7388C32.2114 17.7329 36.2324 16.6773 40.3231 16.6733H41.3318C45.2298 17.0091 48.9735 18.352 52.1961 20.5706C55.4186 22.7891 58.0093 25.807 59.7142 29.3284L65.5498 40.3911L75.4955 59.232C78.5642 65.3281 83.1693 70.5187 88.8562 74.292C94.5432 78.0653 101.116 80.2908 107.925 80.7489H109.667C116.845 80.7417 123.891 78.8222 130.081 75.188C136.271 71.5538 141.381 66.3361 144.885 60.0718C148.389 53.8074 150.161 46.7226 150.018 39.5463C149.875 32.3699 147.823 25.3611 144.073 19.241Z" fill="#0B1013"/>
<path d="M215.292 19.241C211.513 13.1223 206.172 8.12066 199.819 4.75065C193.466 1.38064 186.33 -0.236111 179.144 0.0666966C173.719 0.399728 168.426 1.88591 163.621 4.42609C158.815 6.96628 154.606 10.5021 151.275 14.7976C151.867 15.7646 152.509 16.6817 153.042 17.6904L160.37 31.4626L161.487 29.3451C163.193 25.822 165.785 22.8025 169.009 20.5826C172.233 18.3626 175.978 17.0184 179.878 16.6817C183.065 16.5621 186.244 17.0866 189.224 18.2238C192.204 19.3611 194.924 21.0877 197.221 23.3003C199.518 25.513 201.345 28.1662 202.593 31.1014C203.842 34.0365 204.485 37.1933 204.485 40.3828C204.485 43.5723 203.842 46.7291 202.593 49.6642C201.345 52.5994 199.518 55.2527 197.221 57.4653C194.924 59.678 192.204 61.4045 189.224 62.5418C186.244 63.679 183.065 64.2035 179.878 64.084C175.98 63.7482 172.236 62.4053 169.014 60.1867C165.791 57.9682 163.2 54.9503 161.496 51.4289L155.627 40.3911L145.681 21.5503C142.612 15.4542 138.007 10.2635 132.32 6.49027C126.633 2.71699 120.061 0.491501 113.251 0.0333484C107.813 -0.187756 102.387 0.692379 97.2977 2.6209C92.2085 4.54942 87.5614 7.48654 83.6357 11.2559C79.71 15.0253 76.5865 19.5491 74.4528 24.5558C72.3191 29.5625 71.2192 34.9488 71.2192 40.3911C71.2192 45.8335 72.3191 51.2198 74.4528 56.2265C76.5865 61.2332 79.71 65.757 83.6357 69.5264C87.5614 73.2958 92.2085 76.2329 97.2977 78.1614C102.387 80.0899 107.813 80.9701 113.251 80.7489C118.677 80.4159 123.969 78.9297 128.775 76.3895C133.581 73.8494 137.79 70.3136 141.121 66.0181C140.529 65.051 139.887 64.134 139.353 63.1252L132.025 49.3197L130.908 51.4372C129.203 54.9603 126.611 57.9798 123.387 60.1997C120.163 62.4197 116.418 63.7639 112.518 64.1006C108.266 64.279 104.045 63.3143 100.293 61.3071C96.5406 59.2998 93.3952 56.3234 91.1842 52.6877C88.9248 48.9902 87.7293 44.741 87.7293 40.4078C87.7293 36.0746 88.9248 31.8254 91.1842 28.1279C93.311 24.6336 96.3005 21.7447 99.8656 19.7388C103.431 17.7329 107.452 16.6773 111.542 16.6733H112.551C116.449 17.0091 120.193 18.352 123.415 20.5706C126.638 22.7891 129.229 25.807 130.933 29.3284L136.769 40.3911L146.715 59.232C149.783 65.3281 154.389 70.5187 160.075 74.292C165.762 78.0653 172.335 80.2908 179.144 80.7489H180.887C188.064 80.7417 195.111 78.8222 201.3 75.188C207.49 71.5538 212.6 66.3361 216.104 60.0718C219.608 53.8074 221.38 46.7226 221.237 39.5463C221.095 32.3699 219.042 25.3611 215.292 19.241Z" fill="#0B1013"/>
</svg>
